<mxfile host="app.diagrams.net" modified="2024-07-10T03:20:41.236Z" agent="Mozilla/5.0 (Windows NT 10.0; Win64; x64) AppleWebKit/537.36 (KHTML, like Gecko) Chrome/126.0.0.0 Safari/537.36" etag="INVl2GcWTVppK6vIxDuP" version="24.4.13" type="device">
  <diagram name="Page-1" id="_giAyK8CuV3oOjIb8-7K">
    <mxGraphModel dx="2393" dy="1273" grid="1" gridSize="10" guides="1" tooltips="1" connect="1" arrows="1" fold="1" page="1" pageScale="1" pageWidth="827" pageHeight="1169" math="0" shadow="0">
      <root>
        <mxCell id="0" />
        <mxCell id="1" parent="0" />
        <mxCell id="v5PXq_pl__dPcJaZer3M-16" style="edgeStyle=orthogonalEdgeStyle;rounded=0;orthogonalLoop=1;jettySize=auto;html=1;entryX=0;entryY=0.5;entryDx=0;entryDy=0;" edge="1" parent="1" source="v5PXq_pl__dPcJaZer3M-7" target="v5PXq_pl__dPcJaZer3M-8">
          <mxGeometry relative="1" as="geometry" />
        </mxCell>
        <mxCell id="v5PXq_pl__dPcJaZer3M-7" value="&lt;b style=&quot;font-size: 21px;&quot;&gt;&lt;u style=&quot;&quot;&gt;&lt;font style=&quot;font-size: 21px;&quot;&gt;Data Integration&lt;/font&gt;&lt;/u&gt;&lt;/b&gt;&lt;div style=&quot;font-size: 21px;&quot;&gt;&lt;br&gt;&lt;/div&gt;&lt;div&gt;&lt;br&gt;&lt;/div&gt;&lt;div&gt;&lt;br&gt;&lt;/div&gt;&lt;div&gt;&lt;br&gt;&lt;/div&gt;&lt;div&gt;&lt;br&gt;&lt;/div&gt;&lt;div&gt;&lt;br&gt;&lt;/div&gt;&lt;div&gt;&lt;br&gt;&lt;/div&gt;&lt;div&gt;&lt;br&gt;&lt;/div&gt;&lt;div&gt;&lt;br&gt;&lt;/div&gt;&lt;div&gt;&lt;br&gt;&lt;/div&gt;&lt;div&gt;&lt;br&gt;&lt;/div&gt;&lt;div&gt;&lt;br&gt;&lt;/div&gt;&lt;div&gt;&lt;br&gt;&lt;/div&gt;&lt;div&gt;&lt;br&gt;&lt;/div&gt;&lt;div&gt;&lt;br&gt;&lt;/div&gt;&lt;div&gt;&lt;br&gt;&lt;/div&gt;&lt;div style=&quot;font-size: 15px;&quot;&gt;&lt;font style=&quot;font-size: 15px;&quot;&gt;&lt;br&gt;&lt;/font&gt;&lt;/div&gt;&lt;div style=&quot;font-size: 15px;&quot;&gt;&lt;font style=&quot;font-size: 15px;&quot;&gt;&lt;u&gt;custom connection:&lt;/u&gt;&lt;/font&gt;&lt;/div&gt;&lt;div style=&quot;font-size: 15px;&quot;&gt;&lt;font style=&quot;font-size: 15px;&quot;&gt;https://cbn-api.azurewebsites.net:&lt;/font&gt;&lt;/div&gt;&lt;div style=&quot;font-size: 15px;&quot;&gt;&lt;font style=&quot;font-size: 15px;&quot;&gt;- waterData&lt;span style=&quot;background-color: initial;&quot;&gt;&amp;nbsp;&lt;/span&gt;&lt;span style=&quot;background-color: initial;&quot;&gt;(Tasman Bay, Bay of Plenty)&lt;/span&gt;&lt;/font&gt;&lt;/div&gt;&lt;div style=&quot;font-size: 15px;&quot;&gt;&lt;font style=&quot;font-size: 15px;&quot;&gt;- windData (Tasman Bay, Bay of Plenty)&lt;/font&gt;&lt;/div&gt;" style="rounded=0;whiteSpace=wrap;html=1;" vertex="1" parent="1">
          <mxGeometry x="40" y="180" width="320" height="400" as="geometry" />
        </mxCell>
        <mxCell id="v5PXq_pl__dPcJaZer3M-5" value="" style="shape=image;verticalLabelPosition=bottom;labelBackgroundColor=default;verticalAlign=top;aspect=fixed;imageAspect=0;image=https://seeklogo.com/images/A/airbyte-logo-CC005A0105-seeklogo.com.png;" vertex="1" parent="1">
          <mxGeometry x="132.34" y="290" width="135.33" height="140" as="geometry" />
        </mxCell>
        <mxCell id="v5PXq_pl__dPcJaZer3M-26" style="edgeStyle=orthogonalEdgeStyle;rounded=0;orthogonalLoop=1;jettySize=auto;html=1;" edge="1" parent="1" source="v5PXq_pl__dPcJaZer3M-8" target="v5PXq_pl__dPcJaZer3M-11">
          <mxGeometry relative="1" as="geometry" />
        </mxCell>
        <mxCell id="v5PXq_pl__dPcJaZer3M-8" value="&lt;b style=&quot;font-size: 21px;&quot;&gt;&lt;u style=&quot;&quot;&gt;&lt;font style=&quot;font-size: 21px;&quot;&gt;Data&amp;nbsp;&lt;/font&gt;&lt;/u&gt;&lt;/b&gt;&lt;span style=&quot;font-size: 21px;&quot;&gt;&lt;b&gt;&lt;u&gt;Warehouse&lt;/u&gt;&lt;/b&gt;&lt;/span&gt;&lt;div&gt;&lt;span style=&quot;font-size: 21px;&quot;&gt;&lt;b&gt;&lt;u&gt;&lt;br&gt;&lt;/u&gt;&lt;/b&gt;&lt;/span&gt;&lt;div style=&quot;font-size: 21px;&quot;&gt;&lt;br&gt;&lt;/div&gt;&lt;div&gt;&lt;br&gt;&lt;/div&gt;&lt;div&gt;&lt;br&gt;&lt;/div&gt;&lt;div&gt;&lt;br&gt;&lt;/div&gt;&lt;div&gt;&lt;br&gt;&lt;/div&gt;&lt;div&gt;&lt;br&gt;&lt;/div&gt;&lt;div&gt;&lt;br&gt;&lt;/div&gt;&lt;div&gt;&lt;br&gt;&lt;/div&gt;&lt;div&gt;&lt;br&gt;&lt;/div&gt;&lt;div&gt;&lt;br&gt;&lt;/div&gt;&lt;div&gt;&lt;br&gt;&lt;/div&gt;&lt;div&gt;&lt;br&gt;&lt;/div&gt;&lt;div&gt;&lt;br&gt;&lt;/div&gt;&lt;div&gt;&lt;br&gt;&lt;/div&gt;&lt;div&gt;&lt;br&gt;&lt;/div&gt;&lt;div&gt;&lt;br&gt;&lt;/div&gt;&lt;div&gt;&lt;br&gt;&lt;/div&gt;&lt;div&gt;&lt;span style=&quot;font-size: 15px;&quot;&gt;&lt;u&gt;Schemas:&lt;/u&gt;&lt;/span&gt;&lt;/div&gt;&lt;div&gt;&lt;span style=&quot;font-size: 15px;&quot;&gt;- RAW: raw API JSON response and historical data records&lt;/span&gt;&lt;/div&gt;&lt;/div&gt;" style="rounded=0;whiteSpace=wrap;html=1;" vertex="1" parent="1">
          <mxGeometry x="440" y="180" width="320" height="400" as="geometry" />
        </mxCell>
        <mxCell id="v5PXq_pl__dPcJaZer3M-27" style="edgeStyle=orthogonalEdgeStyle;rounded=0;orthogonalLoop=1;jettySize=auto;html=1;entryX=0;entryY=0.5;entryDx=0;entryDy=0;" edge="1" parent="1" source="v5PXq_pl__dPcJaZer3M-11" target="v5PXq_pl__dPcJaZer3M-14">
          <mxGeometry relative="1" as="geometry" />
        </mxCell>
        <mxCell id="v5PXq_pl__dPcJaZer3M-11" value="&lt;b style=&quot;font-size: 21px;&quot;&gt;&lt;u style=&quot;&quot;&gt;&lt;font style=&quot;font-size: 21px;&quot;&gt;Data Transformation&lt;/font&gt;&lt;/u&gt;&lt;/b&gt;&lt;div&gt;&lt;span style=&quot;font-size: 21px;&quot;&gt;&lt;b&gt;&lt;u&gt;&lt;br&gt;&lt;/u&gt;&lt;/b&gt;&lt;/span&gt;&lt;/div&gt;&lt;div&gt;&lt;span style=&quot;font-size: 21px;&quot;&gt;&lt;b&gt;&lt;u&gt;&lt;br&gt;&lt;/u&gt;&lt;/b&gt;&lt;/span&gt;&lt;div style=&quot;font-size: 21px;&quot;&gt;&lt;br&gt;&lt;/div&gt;&lt;div&gt;&lt;br&gt;&lt;/div&gt;&lt;div&gt;&lt;br&gt;&lt;/div&gt;&lt;div&gt;&lt;br&gt;&lt;/div&gt;&lt;div&gt;&lt;br&gt;&lt;/div&gt;&lt;div&gt;&lt;br&gt;&lt;/div&gt;&lt;div&gt;&lt;br&gt;&lt;/div&gt;&lt;div&gt;&lt;br&gt;&lt;/div&gt;&lt;div&gt;&lt;br&gt;&lt;/div&gt;&lt;div&gt;&lt;br&gt;&lt;/div&gt;&lt;div&gt;&lt;br&gt;&lt;/div&gt;&lt;div&gt;&lt;br&gt;&lt;/div&gt;&lt;div&gt;&lt;br&gt;&lt;/div&gt;&lt;div&gt;&lt;br&gt;&lt;/div&gt;&lt;div&gt;&lt;br&gt;&lt;/div&gt;&lt;div&gt;&lt;span style=&quot;font-size: 15px; background-color: initial;&quot;&gt;&lt;br&gt;&lt;/span&gt;&lt;/div&gt;&lt;div&gt;&lt;span style=&quot;font-size: 15px; background-color: initial;&quot;&gt;Staging, silver and marts models&lt;/span&gt;&lt;br&gt;&lt;/div&gt;&lt;/div&gt;" style="rounded=0;whiteSpace=wrap;html=1;" vertex="1" parent="1">
          <mxGeometry x="827" y="180" width="320" height="400" as="geometry" />
        </mxCell>
        <mxCell id="v5PXq_pl__dPcJaZer3M-12" value="" style="shape=image;verticalLabelPosition=bottom;labelBackgroundColor=default;verticalAlign=top;aspect=fixed;imageAspect=0;image=https://seeklogo.com/images/D/dbt-logo-500AB0BAA7-seeklogo.com.png;" vertex="1" parent="1">
          <mxGeometry x="912" y="285" width="150" height="150" as="geometry" />
        </mxCell>
        <mxCell id="v5PXq_pl__dPcJaZer3M-13" value="" style="shape=image;verticalLabelPosition=bottom;labelBackgroundColor=default;verticalAlign=top;aspect=fixed;imageAspect=0;image=https://cdn.prod.website-files.com/5d1126db676120bb4fe43762/63fd18543c1e9beedd1eefcf_e883e9a96edb10d7d563500f9efe7bc8ecaa39c6-250x251.png;" vertex="1" parent="1">
          <mxGeometry x="519" y="280" width="149.4" height="150" as="geometry" />
        </mxCell>
        <mxCell id="v5PXq_pl__dPcJaZer3M-29" value="" style="edgeStyle=orthogonalEdgeStyle;rounded=0;orthogonalLoop=1;jettySize=auto;html=1;" edge="1" parent="1" source="v5PXq_pl__dPcJaZer3M-14" target="v5PXq_pl__dPcJaZer3M-28">
          <mxGeometry relative="1" as="geometry" />
        </mxCell>
        <mxCell id="v5PXq_pl__dPcJaZer3M-14" value="&lt;b style=&quot;font-size: 21px;&quot;&gt;&lt;u style=&quot;&quot;&gt;&lt;font style=&quot;font-size: 21px;&quot;&gt;Data&amp;nbsp;&lt;/font&gt;&lt;/u&gt;&lt;/b&gt;&lt;span style=&quot;font-size: 21px;&quot;&gt;&lt;b&gt;&lt;u&gt;Warehouse&lt;/u&gt;&lt;/b&gt;&lt;/span&gt;&lt;div style=&quot;font-size: 21px;&quot;&gt;&lt;br&gt;&lt;/div&gt;&lt;div&gt;&lt;br&gt;&lt;/div&gt;&lt;div&gt;&lt;br&gt;&lt;/div&gt;&lt;div&gt;&lt;br&gt;&lt;/div&gt;&lt;div&gt;&lt;br&gt;&lt;/div&gt;&lt;div&gt;&lt;br&gt;&lt;/div&gt;&lt;div&gt;&lt;br&gt;&lt;/div&gt;&lt;div&gt;&lt;br&gt;&lt;/div&gt;&lt;div&gt;&lt;br&gt;&lt;/div&gt;&lt;div&gt;&lt;br&gt;&lt;/div&gt;&lt;div&gt;&lt;br&gt;&lt;/div&gt;&lt;div&gt;&lt;br&gt;&lt;/div&gt;&lt;div&gt;&lt;br&gt;&lt;/div&gt;&lt;div&gt;&lt;br&gt;&lt;/div&gt;&lt;div&gt;&lt;br&gt;&lt;/div&gt;&lt;div&gt;&lt;span style=&quot;font-size: 15px;&quot;&gt;&lt;u&gt;Schemas:&lt;/u&gt;&lt;/span&gt;&lt;/div&gt;&lt;div&gt;&lt;span style=&quot;font-size: 15px;&quot;&gt;- STAGING: parsed latest API responses)&lt;/span&gt;&lt;/div&gt;&lt;div&gt;&lt;span style=&quot;font-size: 15px;&quot;&gt;- SILVER: full dataset (incremental loads)&lt;/span&gt;&lt;/div&gt;&lt;div&gt;&lt;span style=&quot;font-size: 15px;&quot;&gt;MARTS: facts tables, dim tables and big tables for reporting&lt;/span&gt;&lt;/div&gt;" style="rounded=0;whiteSpace=wrap;html=1;" vertex="1" parent="1">
          <mxGeometry x="1230" y="180" width="320" height="400" as="geometry" />
        </mxCell>
        <mxCell id="v5PXq_pl__dPcJaZer3M-15" value="" style="shape=image;verticalLabelPosition=bottom;labelBackgroundColor=default;verticalAlign=top;aspect=fixed;imageAspect=0;image=https://cdn.prod.website-files.com/5d1126db676120bb4fe43762/63fd18543c1e9beedd1eefcf_e883e9a96edb10d7d563500f9efe7bc8ecaa39c6-250x251.png;" vertex="1" parent="1">
          <mxGeometry x="1309" y="280" width="149.4" height="150" as="geometry" />
        </mxCell>
        <mxCell id="v5PXq_pl__dPcJaZer3M-24" style="edgeStyle=orthogonalEdgeStyle;rounded=0;orthogonalLoop=1;jettySize=auto;html=1;" edge="1" parent="1" source="v5PXq_pl__dPcJaZer3M-17" target="v5PXq_pl__dPcJaZer3M-20">
          <mxGeometry relative="1" as="geometry" />
        </mxCell>
        <mxCell id="v5PXq_pl__dPcJaZer3M-17" value="&lt;b style=&quot;font-size: 21px;&quot;&gt;&lt;u style=&quot;&quot;&gt;&lt;font style=&quot;font-size: 21px;&quot;&gt;Data Integration&lt;/font&gt;&lt;/u&gt;&lt;/b&gt;&lt;div&gt;&lt;span style=&quot;font-size: 21px;&quot;&gt;&lt;b&gt;&lt;u&gt;&lt;br&gt;&lt;/u&gt;&lt;/b&gt;&lt;/span&gt;&lt;div style=&quot;font-size: 21px;&quot;&gt;&lt;br&gt;&lt;/div&gt;&lt;div&gt;&lt;br&gt;&lt;/div&gt;&lt;div&gt;&lt;br&gt;&lt;/div&gt;&lt;div&gt;&lt;br&gt;&lt;/div&gt;&lt;div&gt;&lt;br&gt;&lt;/div&gt;&lt;div&gt;&lt;br&gt;&lt;/div&gt;&lt;div&gt;&lt;br&gt;&lt;/div&gt;&lt;div&gt;&lt;br&gt;&lt;/div&gt;&lt;div&gt;&lt;br&gt;&lt;/div&gt;&lt;div&gt;&lt;br&gt;&lt;/div&gt;&lt;div&gt;&lt;br&gt;&lt;/div&gt;&lt;div&gt;&lt;br&gt;&lt;/div&gt;&lt;div&gt;&lt;br&gt;&lt;/div&gt;&lt;div&gt;&lt;br&gt;&lt;/div&gt;&lt;div&gt;&lt;br&gt;&lt;/div&gt;&lt;div&gt;&lt;br&gt;&lt;/div&gt;&lt;div&gt;&lt;br&gt;&lt;/div&gt;&lt;div&gt;&lt;span style=&quot;font-size: 15px;&quot;&gt;Select statement to save all temperature and wind records since 2023-01-01.&amp;nbsp;&lt;/span&gt;&lt;/div&gt;&lt;/div&gt;" style="rounded=0;whiteSpace=wrap;html=1;" vertex="1" parent="1">
          <mxGeometry x="38.01" y="714" width="320" height="400" as="geometry" />
        </mxCell>
        <mxCell id="v5PXq_pl__dPcJaZer3M-19" value="" style="image;aspect=fixed;html=1;points=[];align=center;fontSize=12;image=img/lib/azure2/databases/Azure_Database_PostgreSQL_Server.svg;" vertex="1" parent="1">
          <mxGeometry x="139.76" y="814" width="120" height="160" as="geometry" />
        </mxCell>
        <mxCell id="v5PXq_pl__dPcJaZer3M-25" style="edgeStyle=orthogonalEdgeStyle;rounded=0;orthogonalLoop=1;jettySize=auto;html=1;entryX=0.5;entryY=1;entryDx=0;entryDy=0;" edge="1" parent="1" source="v5PXq_pl__dPcJaZer3M-20" target="v5PXq_pl__dPcJaZer3M-8">
          <mxGeometry relative="1" as="geometry" />
        </mxCell>
        <mxCell id="v5PXq_pl__dPcJaZer3M-20" value="&lt;b style=&quot;font-size: 21px;&quot;&gt;&lt;u style=&quot;&quot;&gt;&lt;font style=&quot;font-size: 21px;&quot;&gt;Data Transformation&lt;/font&gt;&lt;/u&gt;&lt;/b&gt;&lt;div style=&quot;font-size: 21px;&quot;&gt;&lt;br&gt;&lt;/div&gt;&lt;div&gt;&lt;br&gt;&lt;/div&gt;&lt;div&gt;&lt;br&gt;&lt;/div&gt;&lt;div&gt;&lt;br&gt;&lt;/div&gt;&lt;div&gt;&lt;br&gt;&lt;/div&gt;&lt;div&gt;&lt;br&gt;&lt;/div&gt;&lt;div&gt;&lt;br&gt;&lt;/div&gt;&lt;div&gt;&lt;br&gt;&lt;/div&gt;&lt;div&gt;&lt;br&gt;&lt;/div&gt;&lt;div&gt;&lt;br&gt;&lt;/div&gt;&lt;div&gt;&lt;br&gt;&lt;/div&gt;&lt;div&gt;&lt;br&gt;&lt;/div&gt;&lt;div&gt;&lt;br&gt;&lt;/div&gt;&lt;div&gt;&lt;br&gt;&lt;/div&gt;&lt;div&gt;&lt;br&gt;&lt;/div&gt;&lt;div&gt;&lt;br&gt;&lt;/div&gt;&lt;div&gt;&lt;br&gt;&lt;/div&gt;&lt;div&gt;&lt;span style=&quot;font-size: 15px;&quot;&gt;Jupyter notebook to reshape historical dataset according to the API response model. The results of this step are saved as seeds in the dbt project&lt;/span&gt;&lt;/div&gt;" style="rounded=0;whiteSpace=wrap;html=1;" vertex="1" parent="1">
          <mxGeometry x="440" y="714" width="320" height="400" as="geometry" />
        </mxCell>
        <mxCell id="v5PXq_pl__dPcJaZer3M-22" value="" style="shape=image;verticalLabelPosition=bottom;labelBackgroundColor=#ffffff;verticalAlign=top;aspect=fixed;imageAspect=0;image=data:image/svg+xml,PHN2ZyB4bWxuczpjYz0iaHR0cDovL2NyZWF0aXZlY29tbW9ucy5vcmcvbnMjIiB4bWxuczpkYz0iaHR0cDovL3B1cmwub3JnL2RjL2VsZW1lbnRzLzEuMS8iIHhtbG5zOmlua3NjYXBlPSJodHRwOi8vd3d3Lmlua3NjYXBlLm9yZy9uYW1lc3BhY2VzL2lua3NjYXBlIiB4bWxuczpyZGY9Imh0dHA6Ly93d3cudzMub3JnLzE5OTkvMDIvMjItcmRmLXN5bnRheC1ucyMiIHhtbG5zOnNvZGlwb2RpPSJodHRwOi8vc29kaXBvZGkuc291cmNlZm9yZ2UubmV0L0RURC9zb2RpcG9kaS0wLmR0ZCIgeG1sbnM6c3ZnPSJodHRwOi8vd3d3LnczLm9yZy8yMDAwL3N2ZyIgeG1sbnM9Imh0dHA6Ly93d3cudzMub3JnLzIwMDAvc3ZnIiB4bWxuczp4bGluaz0iaHR0cDovL3d3dy53My5vcmcvMTk5OS94bGluayIgdmVyc2lvbj0iMS4xIiBpZD0ic3ZnMTk2OTUxIiBpbmtzY2FwZTp2ZXJzaW9uPSIwLjkyLjMgKDI0MDU1NDYsIDIwMTgtMDMtMTEpIiBzb2RpcG9kaTpkb2NuYW1lPSJweXRob25fdG9vbHNfYW5kX3Nkay5zdmciIHg9IjBweCIgeT0iMHB4IiB2aWV3Qm94PSIwIDAgNDggNDgiIHN0eWxlPSJlbmFibGUtYmFja2dyb3VuZDpuZXcgMCAwIDQ4IDQ4OyIgeG1sOnNwYWNlPSJwcmVzZXJ2ZSI+JiN4YTs8c29kaXBvZGk6bmFtZWR2aWV3IGJvcmRlcmNvbG9yPSIjNjY2NjY2IiBib3JkZXJvcGFjaXR5PSIxIiBmaXQtbWFyZ2luLWJvdHRvbT0iMCIgZml0LW1hcmdpbi1sZWZ0PSIwIiBmaXQtbWFyZ2luLXJpZ2h0PSIwIiBmaXQtbWFyZ2luLXRvcD0iMCIgZ3JpZHRvbGVyYW5jZT0iMTAiIGd1aWRldG9sZXJhbmNlPSIxMCIgaWQ9Im5hbWVkdmlldzE5Njk1MyIgaW5rc2NhcGU6Y3VycmVudC1sYXllcj0ic3ZnMTk2OTUxIiBpbmtzY2FwZTpjeD0iMzIuMDAwMDE1IiBpbmtzY2FwZTpjeT0iMzIuMDAwNTg2IiBpbmtzY2FwZTpwYWdlb3BhY2l0eT0iMCIgaW5rc2NhcGU6cGFnZXNoYWRvdz0iMiIgaW5rc2NhcGU6d2luZG93LWhlaWdodD0iMTAxNyIgaW5rc2NhcGU6d2luZG93LW1heGltaXplZD0iMSIgaW5rc2NhcGU6d2luZG93LXdpZHRoPSIxOTIwIiBpbmtzY2FwZTp3aW5kb3cteD0iLTgiIGlua3NjYXBlOndpbmRvdy15PSItOCIgaW5rc2NhcGU6em9vbT0iMTAuMjcyOTE3IiBvYmplY3R0b2xlcmFuY2U9IjEwIiBwYWdlY29sb3I9IiNmZmZmZmYiIHNob3dncmlkPSJmYWxzZSI+JiN4YTsJPC9zb2RpcG9kaTpuYW1lZHZpZXc+JiN4YTs8ZyBpZD0iZzE5Njk0OSIgdHJhbnNmb3JtPSJ0cmFuc2xhdGUoLTcuNjUsLTcuNjQ5MjgwNikiPiYjeGE7CTx0aXRsZSBpZD0idGl0bGUxOTY5MDUiPlBhZ2UtMTwvdGl0bGU+JiN4YTsJPGcgaWQ9Imdyb3VwMTE3Ny0xIiB0cmFuc2Zvcm09InRyYW5zbGF0ZSg3LjY1LC03LjYxMzQyKSI+JiN4YTsJCTx0aXRsZSBpZD0idGl0bGUxOTY5MDciPlB5dGhvbiBUb29scyBhbmQgU0RLPC90aXRsZT4mI3hhOwkJPGcgaWQ9Imdyb3VwMTE3OC0yIj4mI3hhOwkJCTx0aXRsZSBpZD0idGl0bGUxOTY5MDkiPlNoZWV0LjExNzg8L3RpdGxlPiYjeGE7CQkJPGcgaWQ9Imdyb3VwMTE3OS0zIiB0cmFuc2Zvcm09InRyYW5zbGF0ZSgwLC0xMi4zMTQ3KSI+JiN4YTsJCQkJPHRpdGxlIGlkPSJ0aXRsZTE5NjkxMSI+U2hlZXQuMTE3OTwvdGl0bGU+JiN4YTsJCQkJPGcgaWQ9InNoYXBlMTE4MC00Ij4mI3hhOwkJCQkJPHRpdGxlIGlkPSJ0aXRsZTE5NjkxMyI+U2hlZXQuMTE4MDwvdGl0bGU+JiN4YTsJCQkJCTxwYXRoIGlkPSJwYXRoMTk2OTE1IiBpbmtzY2FwZTpjb25uZWN0b3ItY3VydmF0dXJlPSIwIiBzdHlsZT0iZmlsbDojMzc3MkE0OyIgZD0iTTAsNTEuMTdjMC4wMi0wLjA2LDAuMDQtMC4xMywwLjA1LTAuMiAgICAgICBjMC4wNC0wLjcsMC4wNC0xLjQsMC4xMS0yLjFjMC4yNC0yLjI2LDAuNzYtNC40NCwyLjE4LTYuMjhjMS4xLTEuNDQsMi41NC0yLjMsNC4zMy0yLjU0YzAuMjUtMC4wMywwLjUxLTAuMDQsMC43Ni0wLjA0ICAgICAgIGM1LjM5LDAsMTAuNzksMCwxNi4xOCwwYzAuMzEsMCwwLjMxLDAsMC4zMi0wLjMyYzAtMC4zNy0wLjAyLTAuNzUsMC0xLjEyYzAuMDEtMC4yMy0wLjA3LTAuMjktMC4yOS0wLjI5ICAgICAgIGMtMi45OCwwLjAxLTUuOTUsMC4wMS04LjkzLDAuMDFjLTAuNywwLTEuMzktMC4wMS0yLjA5LDBjLTAuMTksMC0wLjI2LTAuMDUtMC4yNS0wLjI1YzAtMS44My0wLjAxLTMuNjcsMC01LjUgICAgICAgYzAuMDEtMC44MiwwLjQtMS41MSwwLjkzLTIuMTFjMC43NC0wLjg0LDEuNjktMS4zNiwyLjcxLTEuNzVjMS4yNi0wLjQ4LDIuNTctMC43MywzLjg5LTAuODljMS44My0wLjIzLDMuNjYtMC4yNSw1LjQ5LTAuMTcgICAgICAgYzEuOTcsMC4wOCwzLjkyLDAuMzUsNS43OCwxLjA3YzEuMjYsMC40OSwyLjQsMS4xNiwzLjIzLDIuMjZjMC42OSwwLjkxLDEuMDEsMS45MiwwLjk1LDMuMDhjLTAuMDUsMC45My0wLjAyLDEuODctMC4wMSwyLjgxICAgICAgIGMwLDEuNzMsMC4wMSwzLjQ2LDAuMDEsNS4xOWMwLDEuMDIsMC4wMiwyLjA0LTAuMDUsMy4wNmMtMC4xNCwyLjQtMS4yOSw0LjExLTMuNTEsNS4wNGMtMS4wMSwwLjQyLTIuMDYsMC42MS0zLjE0LDAuNjEgICAgICAgYy0zLjgyLDAtNy42NS0wLjAxLTExLjQ3LDBjLTEuMjIsMC0yLjM5LDAuMjctMy40NSwwLjkxYy0xLjQsMC44NS0yLjIsMi4xNS0yLjY1LDMuN2MtMC4yMiwwLjc3LTAuMzEsMS41Ny0wLjMyLDIuMzcgICAgICAgYzAsMS43MywwLDMuNDYsMCw1LjE5YzAsMC4zNSwwLDAuMzUtMC4zNCwwLjM1Yy0xLjI1LDAtMi40OSwwLjA0LTMuNzQsMC4wMWMtMS4yNy0wLjA0LTIuMzctMC41NC0zLjMyLTEuMzcgICAgICAgYy0xLjEyLTAuOTYtMS44Mi0yLjE5LTIuMzEtMy41NmMtMC40Ni0xLjI1LTAuNzMtMi41NC0wLjg0LTMuODZjLTAuMDgtMC44NC0wLjExLTEuNjgtMC4xNi0yLjUyICAgICAgIEMwLjA0LDUxLjg3LDAuMDIsNTEuNzgsMCw1MS42OUMwLDUxLjUyLDAsNTEuMzUsMCw1MS4xN3oiLz4mI3hhOwkJCQk8L2c+JiN4YTsJCQkJPGcgaWQ9InNoYXBlMTE4MS02IiB0cmFuc2Zvcm09InRyYW5zbGF0ZSgxNS4yMDMzLC0yNy44MzIpIj4mI3hhOwkJCQkJPHRpdGxlIGlkPSJ0aXRsZTE5NjkxOCI+U2hlZXQuMTE4MTwvdGl0bGU+JiN4YTsJCQkJCTxwYXRoIGlkPSJwYXRoMTk2OTIwIiBpbmtzY2FwZTpjb25uZWN0b3ItY3VydmF0dXJlPSIwIiBkPSJNMCw2MS4xNWMwLDEuMTksMC45NCwyLjE1LDIuMTEsMi4xNWMxLjE1LDAsMi4xMS0wLjk3LDIuMTEtMi4xMyAgICAgICBjMC0xLjE5LTAuOTUtMi4xNi0yLjExLTIuMTVDMC45Myw1OS4wMywwLDU5Ljk3LDAsNjEuMTV6Ii8+JiN4YTsJCQkJPC9nPiYjeGE7CQkJCTxnIGlkPSJzaGFwZTExODItOCIgdHJhbnNmb3JtPSJ0cmFuc2xhdGUoMTUuMjAzMywtMjcuODMyKSI+JiN4YTsJCQkJCTx0aXRsZSBpZD0idGl0bGUxOTY5MjMiPlNoZWV0LjExODI8L3RpdGxlPiYjeGE7CQkJCQk8cGF0aCBpZD0icGF0aDE5NjkyNSIgaW5rc2NhcGU6Y29ubmVjdG9yLWN1cnZhdHVyZT0iMCIgc3R5bGU9ImZpbGw6I0ZGRkZGRjsiIGQ9Ik0wLDYxLjE1YzAtMS4xOCwwLjkzLTIuMTIsMi4xMS0yLjEzICAgICAgIGMxLjE2LTAuMDEsMi4xMSwwLjk2LDIuMTEsMi4xNWMwLDEuMTYtMC45NiwyLjEzLTIuMTEsMi4xM0MwLjk0LDYzLjMsMCw2Mi4zNCwwLDYxLjE1eiIvPiYjeGE7CQkJCTwvZz4mI3hhOwkJCTwvZz4mI3hhOwkJCTxnIGlkPSJncm91cDExODMtMTAiIHRyYW5zZm9ybT0idHJhbnNsYXRlKDEyLjU5NCkiPiYjeGE7CQkJCTx0aXRsZSBpZD0idGl0bGUxOTY5MjkiPlNoZWV0LjExODM8L3RpdGxlPiYjeGE7CQkJCTxnIGlkPSJzaGFwZTExODQtMTEiPiYjeGE7CQkJCQk8dGl0bGUgaWQ9InRpdGxlMTk2OTMxIj5TaGVldC4xMTg0PC90aXRsZT4mI3hhOwkJCQkJPHBhdGggaWQ9InBhdGgxOTY5MzMiIGlua3NjYXBlOmNvbm5lY3Rvci1jdXJ2YXR1cmU9IjAiIHN0eWxlPSJmaWxsOiNGRkRBNEI7IiBkPSJNMzUuNDEsMzkuNjZjLTAuMDIsMC4wNy0wLjA1LDAuMTQtMC4wNSwwLjIxICAgICAgIGMtMC4wNCwwLjctMC4wNSwxLjQtMC4xMiwyLjA5Yy0wLjIzLDIuMjctMC43NSw0LjQ1LTIuMTcsNi4yOWMtMS4xLDEuNDQtMi41NCwyLjMtNC4zNCwyLjUzYy0wLjI1LDAuMDQtMC41LDAuMDUtMC43NiwwLjA1ICAgICAgIGMtNS4zOSwwLTEwLjc4LDAtMTYuMTcsMGMtMC4zMiwwLTAuMzIsMC0wLjMyLDAuMzJjMCwwLjM3LDAuMDEsMC43NSwwLDEuMTJjLTAuMDIsMC4yMywwLjA3LDAuMjksMC4yOCwwLjI5ICAgICAgIGMyLjk4LTAuMDEsNS45Ni0wLjAxLDguOTQtMC4wMWMwLjY5LDAsMS4zOSwwLjAxLDIuMDksMGMwLjE5LDAsMC4yNSwwLjA1LDAuMjUsMC4yNWMtMC4wMSwxLjgzLDAuMDEsMy42Ny0wLjAxLDUuNSAgICAgICBjLTAuMDEsMC44Mi0wLjM5LDEuNTEtMC45MywyLjExYy0wLjc0LDAuODMtMS42OCwxLjM2LTIuNywxLjc1Yy0xLjI2LDAuNDgtMi41NywwLjcyLTMuOSwwLjg5Yy0xLjgyLDAuMjMtMy42NSwwLjI1LTUuNDgsMC4xNyAgICAgICBjLTEuOTctMC4wOS0zLjkyLTAuMzUtNS43OC0xLjA3Yy0xLjI2LTAuNDktMi40LTEuMTYtMy4yNC0yLjI3Yy0wLjY4LTAuOS0xLTEuOTItMC45NC0zLjA3YzAuMDUtMC45MywwLjAxLTEuODcsMC4wMS0yLjgxICAgICAgIGMwLTEuNzMtMC4wMS0zLjQ2LTAuMDEtNS4xOWMwLTEuMDItMC4wMi0yLjA0LDAuMDQtMy4wNmMwLjE0LTIuNCwxLjI5LTQuMTEsMy41Mi01LjA0YzEtMC40MywyLjA2LTAuNjEsMy4xNC0wLjYxICAgICAgIGMzLjgyLDAsNy42NCwwLjAxLDExLjQ2LDBjMS4yMywwLDIuNC0wLjI3LDMuNDYtMC45MWMxLjQtMC44NSwyLjItMi4xNSwyLjY0LTMuN2MwLjIyLTAuNzcsMC4zMi0xLjU3LDAuMzItMi4zNyAgICAgICBjMC4wMS0xLjczLDAtMy40NiwwLTUuMmMwLTAuMzQsMC0wLjM0LDAuMzUtMC4zNGMxLjI0LDAsMi40OS0wLjA0LDMuNzMtMC4wMWMxLjI3LDAuMDQsMi4zNywwLjU0LDMuMzMsMS4zNyAgICAgICBjMS4xMSwwLjk2LDEuODEsMi4xOSwyLjMxLDMuNTZjMC40NSwxLjI1LDAuNzIsMi41NCwwLjg0LDMuODZjMC4wNywwLjg0LDAuMTEsMS42OCwwLjE2LDIuNTFjMCwwLjEsMC4wMywwLjE5LDAuMDUsMC4yOCAgICAgICBDMzUuNDEsMzkuMzIsMzUuNDEsMzkuNDksMzUuNDEsMzkuNjZ6Ii8+JiN4YTsJCQkJPC9nPiYjeGE7CQkJCTxnIGlkPSJzaGFwZTExODUtMTMiIHRyYW5zZm9ybT0idHJhbnNsYXRlKDE1Ljk4MTMsLTMuOTEyKSI+JiN4YTsJCQkJCTx0aXRsZSBpZD0idGl0bGUxOTY5MzYiPlNoZWV0LjExODU8L3RpdGxlPiYjeGE7CQkJCQk8cGF0aCBpZD0icGF0aDE5NjkzOCIgaW5rc2NhcGU6Y29ubmVjdG9yLWN1cnZhdHVyZT0iMCIgZD0iTTQuMjIsNjEuMTZjMC0xLjE5LTAuOTQtMi4xNS0yLjExLTIuMTVDMC45Niw1OS4wMiwwLDU5Ljk4LDAsNjEuMTQgICAgICAgYzAsMS4xOSwwLjk1LDIuMTYsMi4xMiwyLjE1UzQuMjIsNjIuMzQsNC4yMiw2MS4xNnoiLz4mI3hhOwkJCQk8L2c+JiN4YTsJCQkJPGcgaWQ9InNoYXBlMTE4Ni0xNSIgdHJhbnNmb3JtPSJ0cmFuc2xhdGUoMTUuOTgwNywtMy45MTIpIj4mI3hhOwkJCQkJPHRpdGxlIGlkPSJ0aXRsZTE5Njk0MSI+U2hlZXQuMTE4NjwvdGl0bGU+JiN4YTsJCQkJCTxwYXRoIGlkPSJwYXRoMTk2OTQzIiBpbmtzY2FwZTpjb25uZWN0b3ItY3VydmF0dXJlPSIwIiBzdHlsZT0iZmlsbDojRkZGRkZGOyIgZD0iTTQuMjIsNjEuMTZjMCwxLjE4LTAuOTMsMi4xMi0yLjEsMi4xMyAgICAgICBDMC45NSw2My4zLDAsNjIuMzMsMCw2MS4xNGMwLTEuMTYsMC45Ni0yLjEyLDIuMTEtMi4xM0MzLjI4LDU5LjAxLDQuMjIsNTkuOTcsNC4yMiw2MS4xNnoiLz4mI3hhOwkJCQk8L2c+JiN4YTsJCQk8L2c+JiN4YTsJCTwvZz4mI3hhOwk8L2c+JiN4YTs8L2c+JiN4YTs8L3N2Zz4=;" vertex="1" parent="1">
          <mxGeometry x="493" y="777" width="100" height="100" as="geometry" />
        </mxCell>
        <mxCell id="v5PXq_pl__dPcJaZer3M-23" value="" style="shape=image;verticalLabelPosition=bottom;labelBackgroundColor=default;verticalAlign=top;aspect=fixed;imageAspect=0;image=https://seeklogo.com/images/D/dbt-logo-500AB0BAA7-seeklogo.com.png;" vertex="1" parent="1">
          <mxGeometry x="608" y="864" width="110" height="110" as="geometry" />
        </mxCell>
        <mxCell id="v5PXq_pl__dPcJaZer3M-28" value="&lt;b style=&quot;font-size: 21px;&quot;&gt;&lt;u style=&quot;&quot;&gt;&lt;font style=&quot;font-size: 21px;&quot;&gt;Data A&lt;/font&gt;&lt;/u&gt;&lt;/b&gt;&lt;span style=&quot;font-size: 21px;&quot;&gt;&lt;b&gt;&lt;u&gt;nalysis&lt;/u&gt;&lt;/b&gt;&lt;/span&gt;&lt;div style=&quot;font-size: 21px;&quot;&gt;&lt;br&gt;&lt;/div&gt;&lt;div&gt;&lt;br&gt;&lt;/div&gt;&lt;div&gt;&lt;br&gt;&lt;/div&gt;&lt;div&gt;&lt;br&gt;&lt;/div&gt;&lt;div&gt;&lt;br&gt;&lt;/div&gt;&lt;div&gt;&lt;br&gt;&lt;/div&gt;&lt;div&gt;&lt;br&gt;&lt;/div&gt;&lt;div&gt;&lt;br&gt;&lt;/div&gt;&lt;div&gt;&lt;br&gt;&lt;/div&gt;&lt;div&gt;&lt;br&gt;&lt;/div&gt;&lt;div&gt;&lt;br&gt;&lt;/div&gt;&lt;div&gt;&lt;br&gt;&lt;/div&gt;&lt;div&gt;&lt;br&gt;&lt;/div&gt;&lt;div&gt;&lt;br&gt;&lt;/div&gt;&lt;div&gt;&lt;br&gt;&lt;/div&gt;&lt;div&gt;&lt;br&gt;&lt;/div&gt;&lt;div&gt;&lt;br&gt;&lt;/div&gt;&lt;div&gt;&lt;span style=&quot;font-size: 15px;&quot;&gt;- summary tables and&amp;nbsp;&lt;/span&gt;&lt;span style=&quot;font-size: 15px; background-color: initial;&quot;&gt;plots&lt;/span&gt;&lt;/div&gt;" style="rounded=0;whiteSpace=wrap;html=1;" vertex="1" parent="1">
          <mxGeometry x="1630" y="180" width="320" height="400" as="geometry" />
        </mxCell>
        <mxCell id="v5PXq_pl__dPcJaZer3M-30" value="" style="shape=image;verticalLabelPosition=bottom;labelBackgroundColor=default;verticalAlign=top;aspect=fixed;imageAspect=0;image=https://seeklogo.com/images/S/streamlit-logo-1A3B208AE4-seeklogo.com.png;" vertex="1" parent="1">
          <mxGeometry x="1679.57" y="310" width="220.86" height="120" as="geometry" />
        </mxCell>
      </root>
    </mxGraphModel>
  </diagram>
</mxfile>
